<svg width="20" height="20" viewBox="0 0 20 20" fill="none" xmlns="http://www.w3.org/2000/svg">
<path fill-rule="evenodd" clip-rule="evenodd" d="M0.666626 3.77774C0.666626 2.05952 2.05952 0.666626 3.77774 0.666626H16.2222C17.9405 0.666626 19.3333 2.05952 19.3333 3.77774V16.2222C19.3333 17.9405 17.9405 19.3333 16.2222 19.3333H3.77774C2.05952 19.3333 0.666626 17.9405 0.666626 16.2222V3.77774ZM2.74073 4.81477V16.2222C2.74073 16.7949 3.20503 17.2592 3.77777 17.2592H16.2222C16.795 17.2592 17.2592 16.7949 17.2592 16.2222V4.81477H2.74073ZM4.81483 7.92589C4.81483 7.35315 5.27914 6.88885 5.85187 6.88885H14.1482C14.7209 6.88885 15.1852 7.35315 15.1852 7.92589C15.1852 8.49865 14.7209 8.96293 14.1482 8.96293H5.85187C5.27914 8.96293 4.81483 8.49865 4.81483 7.92589Z" fill="#212121"/>
</svg>
