<svg width="28" height="22" viewBox="0 0 28 22" fill="none" xmlns="http://www.w3.org/2000/svg">
<path fill-rule="evenodd" clip-rule="evenodd" d="M0.514655 2C0.514655 1.17158 1.18622 0.5 2.01466 0.5H26C26.8284 0.5 27.5 1.17158 27.5 2V18.9863C27.5 20.6432 26.1569 21.9863 24.5 21.9863H3.5C1.84314 21.9863 0.5 20.6432 0.5 18.9863V2.48633C0.5 2.4149 0.504995 2.34464 0.514655 2.27587V2ZM3.5 5.33564V18.9863H24.5V5.33615L17.1823 12.6539C15.4249 14.4113 12.5756 14.4113 10.8183 12.6539L3.5 5.33564ZM5.85848 3.45148H22.142L15.061 10.5326C14.4752 11.1184 13.5254 11.1184 12.9396 10.5326L5.85848 3.45148Z" fill="#FF8A15"/>
</svg>
