<svg width="29" height="29" viewBox="0 0 29 29" fill="none" xmlns="http://www.w3.org/2000/svg">
<path fill-rule="evenodd" clip-rule="evenodd" d="M25.4675 15.7204C25.1529 15.7204 24.824 15.62 24.5093 15.5483C23.8722 15.4075 23.2461 15.2205 22.6359 14.9889C21.2619 14.4876 19.7321 15.1062 19.0891 16.4232L18.7745 17.0686C17.3816 16.2915 16.1016 15.3263 14.9704 14.2C13.8474 13.0655 12.885 11.7818 12.1101 10.3848L12.7107 9.98319C14.0239 9.33836 14.6407 7.80413 14.1409 6.42612C13.9138 5.81285 13.7275 5.18516 13.5831 4.54719C13.5116 4.23164 13.4544 3.90176 13.4115 3.57187C13.0527 1.48463 11.2328 -0.0303302 9.12111 0.000460983H4.83071C3.58355 -0.0112833 2.39302 0.521841 1.56919 1.46098C0.745368 2.40012 0.369802 3.65231 0.54031 4.89142C2.10764 17.2526 11.8352 26.9731 24.1661 28.5H24.7096C25.7642 28.5015 26.7824 28.1135 27.5698 27.4099C28.485 26.589 29.0056 25.4142 29 24.1828V19.8799C28.9638 17.8253 27.4843 16.0831 25.4675 15.7204ZM26 24.0777C25.9995 24.4829 25.824 24.8684 25.5182 25.1358C25.1988 25.4126 24.7762 25.5409 24.356 25.4885C13.438 24.0949 4.8571 15.5121 3.50904 4.63688C3.46346 4.21928 3.59148 3.80129 3.86334 3.48003C4.132 3.1756 4.51919 3.00087 4.92624 3.00035H9.17784C9.85766 2.9853 10.4524 3.45303 10.595 4.11489C10.6517 4.5005 10.7226 4.88142 10.8076 5.25763C10.9713 6.00133 11.1892 6.73217 11.4595 7.44437L9.47545 8.36139C9.13283 8.51789 8.86695 8.80382 8.73663 9.15595C8.60631 9.50808 8.62228 9.89739 8.78103 10.2378C10.8207 14.5869 14.3325 18.0829 18.7014 20.1134C19.0465 20.2545 19.4335 20.2545 19.7785 20.1134C20.1355 19.9862 20.4265 19.722 20.5863 19.3797L21.465 17.4046C22.1976 17.6655 22.9453 17.8822 23.7041 18.0536C24.0821 18.1382 24.4647 18.2088 24.8521 18.2652C25.5169 18.4072 25.9868 18.9993 25.9717 19.676L26 24.0777Z" fill="#FF8A15"/>
</svg>
